<?xml version="1.0" encoding="UTF-8"?>
<svg id="_图层_1" data-name="图层 1" xmlns="http://www.w3.org/2000/svg" viewBox="0 0 100 100">
  <defs>
    <style>
      .cls-1 {
        fill: #9a71ff;
      }

      .cls-1, .cls-2 {
        stroke-width: 0px;
      }

      .cls-2 {
        fill: #fff;
      }
    </style>
  </defs>
  <path class="cls-1" d="M10.52,89.48c-2.1-2.1-3.61-4.3-4.65-6.11-1.85-3.19-3.01-6.45-3.77-9.28-.9-3.36-1.41-6.78-1.69-10.09-.22-2.58-.33-5.16-.36-7.73C0,54.17,0,52.09,0,50c0-2.09,0-4.17.04-6.26.04-2.57.14-5.15.37-7.73.29-3.31.8-6.73,1.69-10.09.76-2.83,1.92-6.09,3.77-9.28,1.04-1.81,2.56-4.02,4.65-6.11,2.1-2.1,4.3-3.61,6.11-4.65,3.19-1.85,6.45-3.01,9.28-3.77,3.36-.9,6.78-1.41,10.09-1.69,2.58-.22,5.16-.33,7.73-.37C45.82,0,47.91,0,49.99,0h.02c2.09,0,4.17,0,6.26.04,2.57.04,5.15.14,7.73.37,3.31.29,6.73.8,10.09,1.69,2.83.76,6.09,1.92,9.28,3.77,1.81,1.04,4.02,2.56,6.11,4.65,2.1,2.1,3.61,4.3,4.65,6.11,1.85,3.19,3.01,6.45,3.77,9.28.9,3.36,1.41,6.78,1.69,10.09.22,2.58.33,5.16.37,7.73.04,2.09.04,4.17.04,6.26,0,2.09,0,4.17-.04,6.26-.04,2.57-.14,5.15-.36,7.73-.29,3.31-.8,6.73-1.69,10.09-.76,2.83-1.92,6.09-3.77,9.28-1.04,1.81-2.56,4.02-4.65,6.11h0c-2.1,2.1-4.3,3.61-6.11,4.66-3.19,1.85-6.45,3.01-9.28,3.77-3.36.9-6.78,1.41-10.09,1.69-2.58.22-5.16.33-7.73.37-2.09.04-4.17.04-6.26.04-2.09,0-4.17,0-6.26-.04-2.57-.04-5.15-.14-7.73-.37-3.31-.29-6.73-.8-10.09-1.69-2.83-.76-6.09-1.92-9.28-3.77-1.81-1.04-4.02-2.56-6.11-4.65h-.02Z"/>
  <g>
    <path class="cls-2" d="M77.66,59.93c-.74-.56-1.5-1.08-2.44-1.26-.43-.08-.53-.3-.37-.71.19-.48.35-.98.5-1.48,1.14-3.73,1.05-7.38-1.06-10.74-3.78-6.02-9.08-9.99-16.08-11.58-4.94-1.12-9.93-.69-14.91-.52-3.66.13-7.32.29-10.99.19-.51-.01-1.02-.1-1.53-.15l-.03-.19c.95-.47,1.9-.94,2.84-1.42.8-.41,1.61-.81,2.24-1.48.78-.83.65-1.99-.29-2.64-.4-.27-.85-.39-1.32-.48-.8-.15-1.6-.1-2.4,0-3.13.39-6.14,1.18-8.78,2.99-2.7,1.86-3.01,4.93-.76,7.32,2.2,2.33,5.02,3.59,8.05,4.41,4.2,1.14,8.48,1.94,12.81,2.46.63.08,1.25.23,1.88.35.14.03.3.07.34.22.06.21-.13.29-.26.37-.47.32-.95.62-1.41.96-.35.26-.67.26-1.05.06-.76-.39-1.55-.71-2.41-.81-1.25-.14-2.41.07-3.13,1.21-.71,1.12-.32,2.19.41,3.15.34.45.25.73-.16,1.05-1.17.92-2.28,1.92-3.29,3.01-.89.97-1.61,2.03-1.89,3.35-.52,2.42-.17,4.7,1.04,6.85,1.46,2.59,3.72,4.28,6.38,5.42,7.59,3.23,15.34,3.7,23.19,1.01,3.17-1.09,6.08-2.66,8.25-5.3.44-.54.81-.65,1.44-.43,1.11.39,2.24.76,3.46.63,1.52-.16,2.79-1.08,3.16-2.36.39-1.35-.05-2.45-1.43-3.48ZM76.2,63.12c-.57.29-1.17.22-1.73.02-1.42-.51-2.94-.72-4.18-1.69-.48-.37-1.05-.24-1.48.21-.42.45-.53,1.03-.12,1.48.59.66.3,1.06-.21,1.52-2.35,2.17-5.15,3.51-8.19,4.36-6.63,1.86-13.12,1.28-19.43-1.35-1.9-.79-3.59-1.91-4.87-3.57-1.16-1.51-1.65-3.22-1.51-5.12.1-1.29.68-2.33,1.57-3.25,2.23-2.28,4.8-4.14,7.39-5.96,3.29-2.32,6.68-4.47,10.13-6.54.22-.13.45-.26.67-.4.66-.44.85-1.16.48-1.78-.36-.6-1.04-.78-1.73-.38-1.25.72-2.47,1.49-3.7,2.24-.24.15-.49.29-.72.45-.28.19-.55.22-.86.04-1.4-.82-2.96-1.08-4.54-1.28-4.25-.52-8.46-1.33-12.59-2.47-1.96-.54-3.76-1.42-5.4-2.62-.52-.38-.98-.82-1.36-1.34-.8-1.13-.65-2.19.45-3.03,1.44-1.1,3.13-1.66,4.84-2.12.79-.21,1.58-.44,2.43-.45-.06.31-.31.33-.49.42-1.25.62-2.5,1.25-3.62,2.09-.32.24-.57.19-.9.02-.72-.39-1.33-.25-1.73.36-.37.55-.26,1.18.35,1.7,1.14.97,2.55,1.22,3.96,1.4,3.11.4,6.23.32,9.35.24,4.82-.13,9.64-.53,14.47-.32,7.98.34,14.29,3.76,18.81,10.39,1.7,2.48,2.19,5.19,1.55,8.12-.25,1.16-.64,2.28-1.11,3.36-.18.41-.38.52-.72.16-.11-.12-.23-.24-.37-.33-.51-.37-1.23-.35-1.63.08-.45.47-.51,1.06-.14,1.56.77,1.04,1.73,1.82,3.13,1.79.5,0,.99-.02,1.49-.05.98-.05,1.73.44,2.41,1.04.41.36.33.76-.17,1.02Z"/>
    <path class="cls-2" d="M43.97,56.81c0-.74-.57-1.32-1.29-1.32-.7,0-1.3.61-1.3,1.32,0,.74.56,1.29,1.3,1.29.76,0,1.29-.54,1.29-1.29Z"/>
    <path class="cls-2" d="M57.03,61c.01-.78-.48-1.29-1.25-1.3-.75-.01-1.32.52-1.34,1.24-.02.73.53,1.29,1.28,1.3.78.02,1.3-.47,1.31-1.24Z"/>
  </g>
</svg>