<?xml version="1.0" encoding="UTF-8"?>
<svg id="_图层_1" data-name="图层 1" xmlns="http://www.w3.org/2000/svg" viewBox="0 0 100 100">
  <defs>
    <style>
      .cls-1 {
        fill: #ff6e95;
      }

      .cls-1, .cls-2 {
        stroke-width: 0px;
      }

      .cls-2 {
        fill: #fff;
      }
    </style>
  </defs>
  <path class="cls-1" d="M10.52,89.48c-2.1-2.1-3.61-4.3-4.65-6.11-1.85-3.19-3.01-6.45-3.77-9.28-.9-3.36-1.41-6.78-1.69-10.09-.22-2.58-.33-5.16-.36-7.73C0,54.17,0,52.09,0,50c0-2.09,0-4.17.04-6.26.04-2.57.14-5.15.37-7.73.29-3.31.8-6.73,1.69-10.09.76-2.83,1.92-6.09,3.77-9.28,1.04-1.81,2.56-4.02,4.65-6.11,2.1-2.1,4.3-3.61,6.11-4.65,3.19-1.85,6.45-3.01,9.28-3.77,3.36-.9,6.78-1.41,10.09-1.69,2.58-.22,5.16-.33,7.73-.37C45.82,0,47.91,0,49.99,0h.02c2.09,0,4.17,0,6.26.04,2.57.04,5.15.14,7.73.37,3.31.29,6.73.8,10.09,1.69,2.83.76,6.09,1.92,9.28,3.77,1.81,1.04,4.02,2.56,6.11,4.65,2.1,2.1,3.61,4.3,4.65,6.11,1.85,3.19,3.01,6.45,3.77,9.28.9,3.36,1.41,6.78,1.69,10.09.22,2.58.33,5.16.37,7.73.04,2.09.04,4.17.04,6.26,0,2.09,0,4.17-.04,6.26-.04,2.57-.14,5.15-.36,7.73-.29,3.31-.8,6.73-1.69,10.09-.76,2.83-1.92,6.09-3.77,9.28-1.04,1.81-2.56,4.02-4.65,6.11h0c-2.1,2.1-4.3,3.61-6.11,4.66-3.19,1.85-6.45,3.01-9.28,3.77-3.36.9-6.78,1.41-10.09,1.69-2.58.22-5.16.33-7.73.37-2.09.04-4.17.04-6.26.04-2.09,0-4.17,0-6.26-.04-2.57-.04-5.15-.14-7.73-.37-3.31-.29-6.73-.8-10.09-1.69-2.83-.76-6.09-1.92-9.28-3.77-1.81-1.04-4.02-2.56-6.11-4.65h-.02Z"/>
  <path class="cls-2" d="M66.99,74.92h-33.99c-5.94,0-10.78-4.83-10.78-10.78v-22.78c0-5.94,4.83-10.78,10.78-10.78h33.99c5.94,0,10.78,4.83,10.78,10.78v22.78c0,5.94-4.83,10.78-10.78,10.78ZM33.01,37.68c-2.03,0-3.69,1.65-3.69,3.69v22.78c0,2.03,1.65,3.69,3.69,3.69h33.99c2.03,0,3.69-1.65,3.69-3.69v-22.78c0-2.03-1.65-3.69-3.69-3.69h-33.99Z"/>
  <g>
    <rect class="cls-2" x="41.52" y="18.27" width="5.57" height="21.69" rx="2.79" ry="2.79" transform="translate(-7.61 39.86) rotate(-45)"/>
    <rect class="cls-2" x="52.91" y="18.27" width="5.57" height="21.69" rx="2.79" ry="2.79" transform="translate(74.48 89.09) rotate(-135)"/>
  </g>
  <g>
    <rect class="cls-2" x="38.35" y="47.21" width="4.8" height="10.9" rx="2.4" ry="2.4"/>
    <rect class="cls-2" x="56.85" y="47.21" width="4.8" height="10.9" rx="2.4" ry="2.4"/>
  </g>
</svg>