<?xml version="1.0" encoding="UTF-8"?>
<svg id="_图层_1" data-name="图层 1" xmlns="http://www.w3.org/2000/svg" viewBox="0 0 100 100">
  <defs>
    <style>
      .cls-1 {
        fill: #1dae80;
      }

      .cls-1, .cls-2 {
        stroke-width: 0px;
      }

      .cls-2 {
        fill: #fff;
      }
    </style>
  </defs>
  <path class="cls-1" d="M10.52,89.48c-2.1-2.1-3.61-4.3-4.65-6.11-1.85-3.19-3.01-6.45-3.77-9.28-.9-3.36-1.41-6.78-1.69-10.09-.22-2.58-.33-5.16-.36-7.73C0,54.17,0,52.09,0,50c0-2.09,0-4.17.04-6.26.04-2.57.14-5.15.37-7.73.29-3.31.8-6.73,1.69-10.09.76-2.83,1.92-6.09,3.77-9.28,1.04-1.81,2.56-4.02,4.65-6.11,2.1-2.1,4.3-3.61,6.11-4.65,3.19-1.85,6.45-3.01,9.28-3.77,3.36-.9,6.78-1.41,10.09-1.69,2.58-.22,5.16-.33,7.73-.37C45.82,0,47.91,0,49.99,0h.02c2.09,0,4.17,0,6.26.04,2.57.04,5.15.14,7.73.37,3.31.29,6.73.8,10.09,1.69,2.83.76,6.09,1.92,9.28,3.77,1.81,1.04,4.02,2.56,6.11,4.65,2.1,2.1,3.61,4.3,4.65,6.11,1.85,3.19,3.01,6.45,3.77,9.28.9,3.36,1.41,6.78,1.69,10.09.22,2.58.33,5.16.37,7.73.04,2.09.04,4.17.04,6.26,0,2.09,0,4.17-.04,6.26-.04,2.57-.14,5.15-.36,7.73-.29,3.31-.8,6.73-1.69,10.09-.76,2.83-1.92,6.09-3.77,9.28-1.04,1.81-2.56,4.02-4.65,6.11h0c-2.1,2.1-4.3,3.61-6.11,4.66-3.19,1.85-6.45,3.01-9.28,3.77-3.36.9-6.78,1.41-10.09,1.69-2.58.22-5.16.33-7.73.37-2.09.04-4.17.04-6.26.04-2.09,0-4.17,0-6.26-.04-2.57-.04-5.15-.14-7.73-.37-3.31-.29-6.73-.8-10.09-1.69-2.83-.76-6.09-1.92-9.28-3.77-1.81-1.04-4.02-2.56-6.11-4.65h-.02Z"/>
  <path class="cls-2" d="M20.82,43.48c2.29-5.12,7.23-8.92,12.72-9.97,4.27-.73,8.64.39,12.38,2.44,2.84,1.45,5.37,3.39,7.71,5.54.48.44.47,1.2-.02,1.62-.9.76-1.93,1.36-2.88,2.06-.4.3-.95.28-1.33-.03-3.35-2.78-7.01-5.43-11.41-6.1-6.04-1.01-12.13,3.76-13.04,9.72-.66,3.51.77,7.24,3.45,9.55,3.03,2.68,7.43,3.41,11.29,2.39,4.4-1.06,7.8-4.36,10.47-7.86,4.14-5.51,7.59-11.5,11.3-17.29,1.06-1.46,3.63-1.32,4.49.29,4.87,8.34,9.64,16.72,14.5,25.06.58,1.15.34,2.74-.73,3.53-1,.81-2.55.78-3.53-.05-5.38-3.86-10.76-7.73-16.14-11.61-.59-.42-.59-1.29-.02-1.73.9-.69,1.81-1.36,2.72-2.02.36-.26.84-.27,1.21-.03l1.31.85c.94.61,2.08-.45,1.52-1.43-.78-1.36-1.58-2.71-2.38-4.05-.4-.68-1.37-.7-1.81-.05-2.84,4.14-5.28,8.56-8.45,12.47-3.66,4.78-8.78,8.87-14.89,9.76-.03,0-.06,0-.09.01-2.96.26-6.03.31-8.85-.77-4.09-1.46-7.67-4.49-9.53-8.45-2.16-4.29-2.05-9.56.02-13.86h0ZM20.82,43.48"/>
</svg>