<?xml version="1.0" encoding="UTF-8"?>
<svg id="_图层_1" data-name="图层 1" xmlns="http://www.w3.org/2000/svg" viewBox="0 0 100 100">
  <defs>
    <style>
      .cls-1 {
        fill: #ed5656;
      }

      .cls-1, .cls-2, .cls-3, .cls-4, .cls-5 {
        stroke-width: 0px;
      }

      .cls-2 {
        fill: #25272b;
      }

      .cls-3 {
        fill: #fff;
      }

      .cls-4 {
        fill: #fa0;
      }

      .cls-5 {
        fill: #fffffe;
      }
    </style>
  </defs>
  <path class="cls-3" d="M89.48,89.48c2.1-2.1,3.61-4.3,4.65-6.11,1.85-3.19,3.01-6.45,3.77-9.28.9-3.36,1.41-6.78,1.69-10.09.22-2.58.33-5.16.36-7.73.04-2.09.04-4.17.04-6.26,0-2.09,0-4.17-.04-6.26-.04-2.57-.14-5.15-.37-7.73-.29-3.31-.8-6.73-1.69-10.09-.76-2.83-1.92-6.09-3.77-9.28-1.04-1.81-2.56-4.02-4.65-6.11-2.1-2.1-4.3-3.61-6.11-4.65-3.19-1.85-6.45-3.01-9.28-3.77-3.36-.9-6.78-1.41-10.09-1.69-2.58-.22-5.16-.33-7.73-.37C54.18,0,52.09,0,50.01,0h-.02c-2.09,0-4.17,0-6.26.04-2.57.04-5.15.14-7.73.37-3.31.29-6.73.8-10.09,1.69-2.83.76-6.09,1.92-9.28,3.77-1.81,1.04-4.02,2.56-6.11,4.65-2.1,2.1-3.61,4.3-4.65,6.11-1.85,3.19-3.01,6.45-3.77,9.28-.9,3.36-1.41,6.78-1.69,10.09-.22,2.58-.33,5.16-.37,7.73C0,45.83,0,47.91,0,50c0,2.09,0,4.17.04,6.26.04,2.57.14,5.15.36,7.73.29,3.31.8,6.73,1.69,10.09.76,2.83,1.92,6.09,3.77,9.28,1.04,1.81,2.56,4.02,4.65,6.11h0c2.1,2.1,4.3,3.61,6.11,4.66,3.19,1.85,6.45,3.01,9.28,3.77,3.36.9,6.78,1.41,10.09,1.69,2.58.22,5.16.33,7.73.37,2.09.04,4.17.04,6.26.04,2.09,0,4.17,0,6.26-.04,2.57-.04,5.15-.14,7.73-.37,3.31-.29,6.73-.8,10.09-1.69,2.83-.76,6.09-1.92,9.28-3.77,1.81-1.04,4.02-2.56,6.11-4.65h.02Z"/>
  <g>
    <path class="cls-2" d="M34.35,49.62c0-.13-.1-.18-.17-.24-2.25-1.88-3.63-4.26-4.13-7.15-.31-1.79-.3-3.59-.08-5.4.18-1.49.47-2.95,1-4.35,1.87-4.94,5.23-8.53,9.96-10.83,2.18-1.06,4.5-1.61,6.91-1.82,1.78-.16,3.55-.13,5.32.11,2.76.38,5.35,1.24,7.74,2.68,3.03,1.83,5.36,4.32,7.04,7.42,1.12,2.08,1.8,4.3,2.09,6.65.18,1.48.22,2.95.07,4.43-.11,1.06-.31,2.11-.68,3.11-.7,1.87-1.75,3.51-3.27,4.83-.19.16-.37.35-.55.52-.44.38-.9.71-1.44.94-1.16.5-2.39.77-3.64.95-1.27.19-2.55.34-3.83.48-1.44.16-2.89.28-4.33.32-3.2.07-6.39,0-9.57-.41-1.55-.2-3.12-.34-4.65-.65-1.13-.23-2.24-.53-3.21-1.2-.19-.13-.34-.34-.58-.4ZM50.08,51.83c.8.01,1.6-.04,2.4-.08,2.22-.1,4.42-.36,6.57-.99,1.91-.56,3.67-1.41,5.11-2.83,1.86-1.85,2.6-4.07,2.24-6.66-.11-.81-.27-1.6-.34-2.42-.08-1.01-.16-2.02-.39-3.03-.28-1.25-.66-2.45-1.32-3.55-.62-1.05-1.39-1.98-2.38-2.7-1.66-1.21-3.52-1.76-5.57-1.67-.68.03-1.36.09-2.01.26-.69.17-1.36.43-2.05.61-1.61.42-3.22.46-4.82,0-.61-.18-1.22-.37-1.83-.53-1.41-.37-2.85-.49-4.27-.17-3.19.71-5.34,2.67-6.52,5.7-.53,1.36-.76,2.79-.88,4.24-.09,1.09-.2,2.18-.41,3.26-.24,1.21-.13,2.42.23,3.58.41,1.34,1.18,2.46,2.27,3.37.74.62,1.53,1.16,2.4,1.59,1.69.84,3.49,1.28,5.34,1.57,2.07.32,4.15.42,6.24.44Z"/>
    <path class="cls-2" d="M66.2,55.22c1.44.95,2.77,2.03,3.91,3.32,1.06,1.19,1.98,2.47,2.51,3.99.23.65.37,1.31.3,2-.14,1.37-1.22,2.27-2.53,2.34-1.38.08-2.62-.35-3.79-1.03-.06-.03-.1-.11-.21-.09,0,.3,0,.61,0,.91-.11,4.19-2.02,7.32-5.54,9.52-.09.05-.18.11-.26.16-.32.1-.64.21-.97.29-1.02.26-2.05.43-3.08.58-1.27.18-2.53.44-3.82.32-.19-.17-.42-.28-.56-.5-.09-.13-.21-.14-.35-.13-1.2.04-2.4.04-3.6,0-.16,0-.28.03-.39.15-.15.16-.33.3-.49.45-.32,0-.64.11-.97.06-.39-.05-.79-.09-1.19-.13-1.95-.24-3.89-.53-5.78-1.08-.53-.35-1.08-.66-1.58-1.07-1.83-1.49-3.12-3.35-3.77-5.62-.37-1.27-.52-2.58-.44-3.91-.13-.06-.17.07-.25.11-1.19.69-2.45,1.11-3.84,1-1.42-.12-2.4-1.15-2.43-2.57-.02-.96.27-1.84.68-2.68.73-1.49,1.77-2.76,2.94-3.93.92-.93,1.96-1.71,3-2.49.46.27.87.61,1.35.85.84.42,1.68.81,2.58,1.06.33.09.33.1.22.42-.05.14-.1.28-.14.42-.77,2.61-1.31,5.25-1.37,7.98,0,.13-.03.27-.04.4-.11.88-.16,1.77-.16,2.66,0,.12,0,.24.05.35.08.18.3.31.47.26.2-.06.21-.22.21-.39,0-.04,0-.09,0-.13,0-.9,0-1.81.11-2.71,0-.06-.01-.16.13-.14-.03.65-.07,1.29-.11,1.94-.02.41-.04.83.02,1.24.02.12.04.23.16.3.13.08.28.11.43.06.17-.07.17-.23.17-.38-.01-.83,0-1.66.04-2.49,0-.17,0-.34.13-.56,0,.23,0,.38,0,.52-.01.81-.07,1.63-.04,2.44,0,.25,0,.51.25.67.09.35.26.66.45.96,1.14,1.87,2.81,3.05,4.85,3.74,1.88.64,3.82.91,5.8.98,1.72.06,3.44-.03,5.13-.36,1.52-.3,2.98-.74,4.31-1.57,1.54-.97,2.68-2.27,3.24-4.03.49-1.54.52-3.13.24-4.7-.52-2.84-2.1-4.97-4.52-6.5-.14-.09-.26-.25-.46-.22.5-.09,1-.17,1.5-.27,1.18-.23,2.32-.56,3.47-.91,1.44-.45,2.86-.95,4.08-1.88Z"/>
    <path class="cls-4" d="M52.71,77.55c1.29.12,2.56-.14,3.82-.32,1.04-.14,2.07-.32,3.08-.58.33-.08.65-.2.97-.29.64.2,1.25.44,1.81.82.33.23.64.48.84.84.42.74.2,1.41-.59,1.72-.19.08-.39.13-.6.16-1.47.24-2.95.44-4.45.35-1.12-.07-2.24-.12-3.33-.41-.33-.09-.65-.2-.95-.36-.71-.37-.96-1.19-.6-1.94Z"/>
    <path class="cls-4" d="M39.38,76.37c1.89.55,3.83.84,5.78,1.08.4.05.79.08,1.19.13.33.05.65-.05.97-.06.35.5.16,1.47-.54,1.88-.26.15-.53.26-.82.33-.84.23-1.7.39-2.57.43-1.02.05-2.04.14-3.06.04-.91-.09-1.82-.2-2.72-.38-1.02-.2-1.35-1.1-.73-1.95.28-.39.67-.67,1.08-.9.45-.25.93-.45,1.42-.6Z"/>
    <path class="cls-5" d="M64.15,47.94c-1.43,1.42-3.2,2.27-5.11,2.83-2.14.63-4.34.88-6.57.99-.8.04-1.6.09-2.4.08-2.09-.02-4.18-.12-6.24-.44-1.84-.29-3.65-.74-5.34-1.57-.87-.43-1.66-.96-2.4-1.59-1.08-.91-1.86-2.03-2.27-3.37-.36-1.17-.47-2.38-.23-3.59.21-1.08.33-2.16.41-3.26.11-1.45.34-2.88.88-4.24,1.18-3.03,3.33-4.99,6.52-5.7,1.42-.32,2.86-.2,4.27.17.61.16,1.22.36,1.83.53,1.61.46,3.22.43,4.82,0,.69-.18,1.36-.44,2.05-.61.65-.17,1.33-.23,2.01-.25,2.05-.08,3.92.46,5.58,1.67.98.72,1.75,1.65,2.38,2.7.66,1.1,1.04,2.3,1.32,3.55.22,1,.3,2.01.39,3.03.07.81.22,1.61.34,2.42.36,2.59-.38,4.82-2.24,6.66Z"/>
    <path class="cls-5" d="M38.13,69.98c.07,0,.15,0,.22,0,.3-.03.36-.08.39-.37.02-.19.02-.38.03-.58.03-.7,0-1.39.09-2.09.01-.1-.02-.21.1-.28.07.16.03.32.03.48,0,.8-.01,1.6,0,2.4,0,.39.13.52.44.55.3.03.45-.09.46-.39.01-.4,0-.8.01-1.2.01-.54.04-1.08.06-1.64.22.06.15.2.16.3.01.84.02,1.69.02,2.53,0,.25.09.43.34.51.32.11.52-.02.55-.36,0-.09,0-.18,0-.27,0-.73,0-1.45.02-2.18,0-.14-.04-.29.07-.44.13.08.09.2.09.3.02.74.04,1.48.06,2.22,0,.13.01.27.03.4.05.31.24.46.51.44.27-.02.38-.15.39-.49,0-.79,0-1.57,0-2.36,0-.14-.03-.29.06-.44.22.11.16.31.16.46.02.62.02,1.24.03,1.87,0,.18,0,.36.01.53.03.31.16.45.44.44.29,0,.48-.17.51-.45,0-.06,0-.12,0-.18,0-.15,0-.3,0-.44-.09-1.24-.03-2.48.13-3.71.15-1.19.23-2.39.43-3.57.18-1.05.37-2.1.55-3.15.03-.17.09-.21.27-.19,1.97.22,3.96.33,5.94.29,2.1-.05,4.2-.22,6.27-.59.06-.01.11-.04.16-.06.21-.03.32.13.46.22,2.42,1.53,4.01,3.66,4.52,6.5.29,1.57.25,3.16-.24,4.7-.56,1.76-1.7,3.05-3.24,4.03-1.32.84-2.79,1.28-4.31,1.57-1.69.33-3.41.42-5.13.36-1.98-.06-3.92-.34-5.8-.98-2.04-.69-3.71-1.88-4.85-3.74-.19-.3-.36-.61-.45-.96Z"/>
    <path class="cls-2" d="M55.52,38.78c-.01-.63.11-1.24.39-1.8.97-2.02,3.26-2.05,4.57-.81,1.28,1.21,1.57,3.4.64,4.91-.61.99-1.49,1.56-2.7,1.44-.99-.1-1.72-.66-2.27-1.46-.47-.68-.64-1.45-.63-2.27ZM58.45,37.45c0-.53-.45-1-.93-1-.57,0-1.04.46-1.02,1,.02.51.54.97,1.08.96.45-.01.88-.48.87-.96Z"/>
    <path class="cls-2" d="M42.03,35.43c.29.05.58.14.85.27.41.21.76.54,1.02.93.54.81.7,1.84.55,2.8-.13.82-.48,1.62-1.07,2.21s-1.43.95-2.26.88c-.95-.08-1.8-.7-2.27-1.53-.94-1.65-.51-3.98,1.04-5.11.3-.22.64-.39,1.01-.47.37-.08.76-.06,1.14,0ZM39.88,37.47c0,.52.39.91.92.94.43.02.99-.52.96-.97-.03-.55-.42-.99-.92-.98-.52,0-.95.47-.95,1.02Z"/>
    <path class="cls-4" d="M49.33,40.4c1.3-.03,2.61,0,3.9.15.03,0,.06,0,.09,0,.49.07.57.21.32.64-.67,1.14-1.45,2.2-2.41,3.11-.27.26-.55.49-.85.71-.27.19-.53.24-.81.02-.22-.18-.47-.32-.67-.51-1.05-.99-1.93-2.12-2.65-3.38-.22-.38-.15-.52.29-.6.73-.12,1.48-.09,2.21-.15.19-.01.38,0,.58,0Z"/>
    <path class="cls-5" d="M58.45,37.45c0,.47-.42.94-.87.96-.55.02-1.07-.44-1.08-.96-.02-.54.45-1,1.02-1,.48,0,.92.47.93,1Z"/>
    <path class="cls-5" d="M39.88,37.47c0-.55.44-1.01.95-1.02.5,0,.89.44.92.98.03.45-.54.99-.96.97-.52-.03-.92-.42-.92-.94Z"/>
    <path class="cls-1" d="M66.2,55.22c-1.22.93-2.64,1.42-4.08,1.88-1.14.36-2.29.69-3.47.91-.5.1-1,.18-1.5.27-.06.02-.11.05-.16.06-2.07.37-4.17.54-6.27.59-1.99.05-3.97-.06-5.94-.29-.18-.02-.24.02-.27.19-.18,1.05-.37,2.1-.55,3.15-.2,1.18-.27,2.38-.43,3.57-.16,1.24-.22,2.47-.13,3.71.01.15,0,.3,0,.44,0,.06,0,.12,0,.18-.03.28-.23.45-.51.45-.28,0-.41-.13-.44-.44-.01-.18-.01-.36-.01-.53,0-.62,0-1.24-.03-1.87,0-.15.06-.35-.16-.46-.09.15-.06.3-.06.44,0,.79,0,1.57,0,2.36,0,.34-.12.47-.39.49-.28.02-.46-.13-.51-.44-.02-.13-.03-.27-.03-.4-.02-.74-.04-1.48-.06-2.22,0-.1.04-.23-.09-.3-.12.15-.07.3-.07.44-.01.73-.01,1.45-.02,2.18,0,.09,0,.18,0,.27-.03.34-.23.47-.55.36-.25-.08-.33-.26-.34-.51,0-.84,0-1.69-.02-2.53,0-.1.06-.24-.16-.3-.02.56-.05,1.1-.06,1.64-.01.4,0,.8-.01,1.2-.01.3-.17.42-.46.39-.31-.03-.43-.17-.44-.55,0-.8,0-1.6,0-2.4,0-.16.05-.32-.03-.48-.12.07-.08.18-.1.28-.09.69-.06,1.39-.09,2.09,0,.19,0,.39-.03.58-.03.29-.09.34-.39.37-.07,0-.15,0-.22,0-.26-.16-.25-.42-.25-.67-.03-.82.02-1.63.04-2.44,0-.15,0-.29,0-.52-.13.22-.13.4-.13.56-.04.83-.05,1.66-.04,2.49,0,.15,0,.31-.17.38-.15.06-.29.02-.43-.06-.12-.07-.14-.18-.16-.3-.06-.41-.04-.83-.02-1.24.04-.65.07-1.29.11-1.94-.14-.02-.12.08-.13.14-.11.9-.1,1.8-.11,2.71,0,.04,0,.09,0,.13,0,.17,0,.33-.21.39-.16.05-.38-.08-.47-.26-.05-.11-.05-.23-.05-.35,0-.89.05-1.78.16-2.66.02-.13.04-.26.04-.4.07-2.73.61-5.37,1.37-7.98.04-.14.1-.28.14-.42.11-.32.11-.33-.22-.42-.9-.25-1.75-.64-2.58-1.06-.48-.24-.89-.58-1.35-.85-.02-.05-.04-.11-.07-.16-.54-.71-.47-1.46-.09-2.2.13-.25.35-.46.43-.71.09-.26-.13-.53-.14-.81-.01-.28-.02-.56.02-.84.05-.36.18-.68.52-.87.24.06.39.26.58.4.97.67,2.08.97,3.21,1.2,1.54.31,3.1.45,4.65.65,3.18.41,6.37.48,9.57.41,1.45-.03,2.89-.16,4.33-.32,1.28-.14,2.56-.29,3.83-.48,1.24-.18,2.47-.44,3.64-.95.54-.23,1-.56,1.44-.94.55.27.63.78.64,1.31,0,.33-.05.65-.19.95-.1.21-.06.36.08.52.22.26.4.54.53.87.23.62.14,1.19-.26,1.71-.07.09-.18.16-.21.28Z"/>
  </g>
</svg>