<?xml version="1.0" encoding="UTF-8"?>
<svg id="_图层_1" data-name="图层 1" xmlns="http://www.w3.org/2000/svg" viewBox="0 0 100 100">
  <defs>
    <style>
      .cls-1 {
        fill: #000;
      }

      .cls-1, .cls-2, .cls-3, .cls-4 {
        stroke-width: 0px;
      }

      .cls-2 {
        fill: #ed5656;
      }

      .cls-3 {
        fill: #fff;
      }

      .cls-4 {
        fill: #fa0;
      }
    </style>
  </defs>
  <path class="cls-3" d="M89.48,89.48c2.1-2.1,3.61-4.3,4.65-6.11,1.85-3.19,3.01-6.45,3.77-9.28.9-3.36,1.41-6.78,1.69-10.09.22-2.58.33-5.16.36-7.73.04-2.09.04-4.17.04-6.26,0-2.09,0-4.17-.04-6.26-.04-2.57-.14-5.15-.37-7.73-.29-3.31-.8-6.73-1.69-10.09-.76-2.83-1.92-6.09-3.77-9.28-1.04-1.81-2.56-4.02-4.65-6.11-2.1-2.1-4.3-3.61-6.11-4.65-3.19-1.85-6.45-3.01-9.28-3.77-3.36-.9-6.78-1.41-10.09-1.69-2.58-.22-5.16-.33-7.73-.37C54.18,0,52.09,0,50.01,0h-.02c-2.09,0-4.17,0-6.26.04-2.57.04-5.15.14-7.73.37-3.31.29-6.73.8-10.09,1.69-2.83.76-6.09,1.92-9.28,3.77-1.81,1.04-4.02,2.56-6.11,4.65-2.1,2.1-3.61,4.3-4.65,6.11-1.85,3.19-3.01,6.45-3.77,9.28-.9,3.36-1.41,6.78-1.69,10.09-.22,2.58-.33,5.16-.37,7.73C0,45.83,0,47.91,0,50c0,2.09,0,4.17.04,6.26.04,2.57.14,5.15.36,7.73.29,3.31.8,6.73,1.69,10.09.76,2.83,1.92,6.09,3.77,9.28,1.04,1.81,2.56,4.02,4.65,6.11h0c2.1,2.1,4.3,3.61,6.11,4.66,3.19,1.85,6.45,3.01,9.28,3.77,3.36.9,6.78,1.41,10.09,1.69,2.58.22,5.16.33,7.73.37,2.09.04,4.17.04,6.26.04,2.09,0,4.17,0,6.26-.04,2.57-.04,5.15-.14,7.73-.37,3.31-.29,6.73-.8,10.09-1.69,2.83-.76,6.09-1.92,9.28-3.77,1.81-1.04,4.02-2.56,6.11-4.65h.02Z"/>
  <g>
    <ellipse class="cls-4" cx="40.76" cy="73.35" rx="10.25" ry="4.56"/>
    <ellipse class="cls-4" cx="61.02" cy="73.35" rx="10.25" ry="4.56"/>
    <path class="cls-1" d="M50.89,21.56h0c11.76,0,21.31,9.55,21.31,21.31v14.54c0,9.95-8.07,18.02-18.02,18.02h-6.58c-9.95,0-18.02-8.07-18.02-18.02v-14.54c0-11.76,9.55-21.31,21.31-21.31Z"/>
    <g>
      <ellipse class="cls-3" cx="43.9" cy="33.68" rx="3.13" ry="4.09"/>
      <ellipse class="cls-3" cx="57.88" cy="33.68" rx="3.13" ry="4.09"/>
    </g>
    <path class="cls-1" d="M43.9,32.34c-1.16,0-2.1.94-2.1,2.1,0,.32.26.58.58.58s.58-.26.58-.58c0-.51.43-.95.95-.95s.94.43.94.95c0,.32.26.58.58.58s.58-.26.58-.58c0-1.16-.94-2.1-2.1-2.1Z"/>
    <path class="cls-1" d="M57.88,32.34c-1.16,0-2.1.94-2.1,2.1,0,.32.26.58.58.58s.58-.26.58-.58c0-.51.43-.95.95-.95s.94.43.94.95c0,.32.26.58.58.58s.58-.26.58-.58c0-1.16-.94-2.1-2.1-2.1Z"/>
    <ellipse class="cls-4" cx="50.89" cy="40.56" rx="4.37" ry="2.01"/>
    <ellipse class="cls-1" cx="72.2" cy="54.8" rx="2.37" ry="6.5" transform="translate(-16.43 35.8) rotate(-25.1)"/>
    <path class="cls-3" d="M35.37,48.98h31.03v6.19c0,8.56-6.95,15.52-15.52,15.52h0c-8.56,0-15.52-6.95-15.52-15.52v-6.19h0Z"/>
    <rect class="cls-2" x="29.58" y="44.16" width="42.62" height="4.82"/>
    <path class="cls-2" d="M37.7,46.86h7.82v4.82h-7.82c-1.33,0-2.41-1.08-2.41-2.41h0c0-1.33,1.08-2.41,2.41-2.41Z" transform="translate(-8.87 89.68) rotate(-90)"/>
    <ellipse class="cls-1" cx="28.81" cy="49.55" rx="2.37" ry="6.5" transform="translate(-24.84 29.39) rotate(-39.23)"/>
  </g>
</svg>