<?xml version="1.0" encoding="UTF-8"?>
<svg id="_图层_1" data-name="图层 1" xmlns="http://www.w3.org/2000/svg" viewBox="0 0 100 100">
  <defs>
    <style>
      .cls-1 {
        fill: #ff4557;
      }

      .cls-1, .cls-2 {
        stroke-width: 0px;
      }

      .cls-2 {
        fill: #fff;
      }
    </style>
  </defs>
  <path class="cls-1" d="M10.52,89.48c-2.1-2.1-3.61-4.3-4.65-6.11-1.85-3.19-3.01-6.45-3.77-9.28-.9-3.36-1.41-6.78-1.69-10.09-.22-2.58-.33-5.16-.36-7.73C0,54.17,0,52.09,0,50c0-2.09,0-4.17.04-6.26.04-2.57.14-5.15.37-7.73.29-3.31.8-6.73,1.69-10.09.76-2.83,1.92-6.09,3.77-9.28,1.04-1.81,2.56-4.02,4.65-6.11,2.1-2.1,4.3-3.61,6.11-4.65,3.19-1.85,6.45-3.01,9.28-3.77,3.36-.9,6.78-1.41,10.09-1.69,2.58-.22,5.16-.33,7.73-.37C45.82,0,47.91,0,49.99,0h.02c2.09,0,4.17,0,6.26.04,2.57.04,5.15.14,7.73.37,3.31.29,6.73.8,10.09,1.69,2.83.76,6.09,1.92,9.28,3.77,1.81,1.04,4.02,2.56,6.11,4.65,2.1,2.1,3.61,4.3,4.65,6.11,1.85,3.19,3.01,6.45,3.77,9.28.9,3.36,1.41,6.78,1.69,10.09.22,2.58.33,5.16.37,7.73.04,2.09.04,4.17.04,6.26,0,2.09,0,4.17-.04,6.26-.04,2.57-.14,5.15-.36,7.73-.29,3.31-.8,6.73-1.69,10.09-.76,2.83-1.92,6.09-3.77,9.28-1.04,1.81-2.56,4.02-4.65,6.11h0c-2.1,2.1-4.3,3.61-6.11,4.66-3.19,1.85-6.45,3.01-9.28,3.77-3.36.9-6.78,1.41-10.09,1.69-2.58.22-5.16.33-7.73.37-2.09.04-4.17.04-6.26.04-2.09,0-4.17,0-6.26-.04-2.57-.04-5.15-.14-7.73-.37-3.31-.29-6.73-.8-10.09-1.69-2.83-.76-6.09-1.92-9.28-3.77-1.81-1.04-4.02-2.56-6.11-4.65h-.02Z"/>
  <g>
    <path class="cls-2" d="M54.94,62.13s0,.02,0,.03c2.34,0,4.67,0,7.01,0,.37,0,.52-.13.51-.5-.01-1.17-.02-2.34,0-3.51,0-.37-.14-.48-.49-.48-1.07.01-2.15,0-3.22,0-.69,0-.71-.03-.71-.73,0-4.11,0-8.23,0-12.34,0-.08,0-.17,0-.25-.02-.36.13-.52.51-.51.63.02,1.27,0,1.9,0,.34,0,.47-.11.46-.45-.01-1.18-.02-2.36,0-3.55,0-.33-.12-.44-.43-.44-3.14,0-6.27,0-9.41,0-.31,0-.45.13-.44.44,0,1.18.01,2.37,0,3.55,0,.35.15.45.48.45.62-.01,1.24.01,1.86,0,.39-.01.54.14.54.53,0,4.26,0,8.53,0,12.79,0,.37-.15.51-.52.51-1.02-.01-2.04,0-3.05,0-.39,0-.6.14-.76.49-.5,1.15-1.03,2.28-1.55,3.42-.22.48-.19.54.34.54,2.32,0,4.65,0,6.97,0Z"/>
    <path class="cls-2" d="M29.02,48.6h-.04c0-3.35,0-6.71,0-10.06,0-.54-.01-.55-.56-.55-1.03,0-2.06.01-3.09.03-.72.01-.73.02-.73.75,0,6.05,0,12.1,0,18.15,0,.25,0,.5-.04.74-.07.51-.3.73-.82.75-.6.02-1.21.02-1.81.02-.28,0-.39.08-.26.37.44.99.88,1.98,1.32,2.98.09.2.21.35.46.35.93.02,1.87.09,2.8-.1.97-.2,1.69-.74,2.19-1.61.46-.81.58-1.68.58-2.58,0-3.08,0-6.16,0-9.24Z"/>
    <path class="cls-2" d="M44.38,55.86s0,.02,0,.03c.74,0,1.48,0,2.23,0,.21,0,.41,0,.52-.24.46-1.03.92-2.06,1.38-3.09.13-.29.04-.41-.27-.4-.58,0-1.15,0-1.73,0-.72,0-.86-.22-.57-.89,1-2.25,2.01-4.49,3.01-6.74.18-.41.15-.47-.31-.48-.96,0-1.92,0-2.89,0-.83,0-1-.27-.66-1.01.72-1.59,1.43-3.18,2.14-4.78.21-.46.19-.49-.3-.49-1.16,0-2.31.01-3.46,0-.37,0-.57.12-.72.46-.78,1.78-1.57,3.54-2.36,5.31-.41.92-.91,1.79-1.17,2.77-.24.91.17,1.57,1.07,1.82.28.08.57.11.86.11.38,0,.77,0,1.15,0,.44,0,.5.09.33.49-.32.76-.66,1.51-.99,2.27-.4.91-.85,1.79-1.16,2.73-.34,1.07.08,1.78,1.15,2.04.16.04.32.07.49.07.76,0,1.51,0,2.27,0Z"/>
    <path class="cls-2" d="M19.22,44.03c-.6,0-1.21,0-1.81,0-.29,0-.43.12-.45.41-.03.48-.07.96-.1,1.44-.17,2.27-.34,4.55-.52,6.82-.05.62-.05,1.24-.31,1.82-.13.29-.1.54.02.82.62,1.35,1.22,2.71,1.83,4.06.09.19.1.51.33.52.21,0,.31-.29.42-.47,1.22-1.92,1.82-4.06,2.07-6.29.18-1.62.27-3.26.4-4.89.1-1.26.18-2.52.28-3.78.03-.33-.08-.48-.43-.47-.58.02-1.15,0-1.73,0Z"/>
    <path class="cls-2" d="M34.33,44.04s0,0,0,0c-.59,0-1.18.01-1.77,0-.33-.01-.45.11-.42.44.06.53.1,1.07.15,1.6.21,2.67.3,5.36.68,8.01.29,2,.93,3.9,2.09,5.6.26.38.3.38.49-.04.67-1.46,1.32-2.93,1.98-4.4.07-.17.13-.34.05-.52-.43-.96-.36-2-.45-3-.21-2.42-.38-4.85-.56-7.28-.02-.29-.13-.41-.43-.4-.6.01-1.21,0-1.82,0Z"/>
    <path class="cls-2" d="M41.71,62.21h0c.84,0,1.68-.02,2.51,0,.43.01.68-.13.85-.53.5-1.17,1.05-2.33,1.57-3.49.16-.36.12-.42-.29-.43-1.1,0-2.2,0-3.3,0-.98,0-1.95,0-2.9-.29-.23-.07-.37.03-.46.23-.59,1.29-1.18,2.57-1.77,3.86-.11.23-.02.37.21.44.38.12.77.2,1.17.2.8,0,1.59,0,2.39,0Z"/>
    <path class="cls-2" d="M79.67,42.43h0c0,.33,0,.66,0,.99,0,.32.12.48.46.48.59,0,1.18.02,1.77,0,1.24-.05,2.12-.97,2.15-2.21.02-1.19-.92-2.21-2.07-2.24-1.29-.03-2.26.86-2.3,2.12,0,.29,0,.58,0,.87Z"/>
    <path class="cls-2" d="M84.03,52.31c-.02-1.34-.49-2.5-1.62-3.32-.94-.68-2.01-.94-3.15-.93-.4,0-.54-.15-.53-.54.02-.91.01-1.82,0-2.72-.01-1.46-.33-2.82-1.42-3.88-.86-.84-1.94-1.22-3.11-1.39-.85-.12-1.7-.05-2.55-.06-.35,0-.46-.14-.45-.47.02-.3,0-.61,0-.91,0-.23-.1-.32-.32-.32-1.22,0-2.45,0-3.67,0-.3,0-.42.14-.42.43,0,.26,0,.52,0,.78,0,.32-.12.47-.47.47-.71-.01-1.43.01-2.15,0-.29,0-.43.08-.43.39.01,1.22.01,2.45,0,3.67,0,.31.12.41.42.4.69-.01,1.38,0,2.06,0,.39,0,.56.15.55.53,0,1.02,0,2.04,0,3.05,0,.37-.14.54-.54.53-1.18-.02-2.37.01-3.55,0-.37,0-.51.13-.51.51.01,1.09,0,2.17,0,3.26,0,.66.05.7.7.7,1.15,0,2.31,0,3.46,0,.3,0,.44.1.43.4,0,.15,0,.3,0,.45,0,2.74,0,5.47,0,8.21,0,.59.04.63.64.63,1.09,0,2.17-.01,3.26,0,.38,0,.53-.1.53-.52-.02-1.44,0-2.89,0-4.33,0-1.29,0-2.58,0-3.88q0-.98.99-.98c1.94,0,3.88-.02,5.81,0,1.05.01,1.59.59,1.6,1.63,0,1.03,0,2.06,0,3.09,0,.91-.28,1.18-1.2,1.18-.94,0-1.87,0-2.81,0-.33,0-.47.05-.31.42.45.99.87,1.99,1.3,2.99.1.24.26.38.53.37,1.03-.01,2.07.03,3.09-.04,2.22-.15,3.78-1.71,3.81-3.8.03-2.02.03-4.04,0-6.07ZM73.93,48.05c-.77-.02-1.54-.01-2.31,0-.31,0-.42-.12-.41-.41,0-.55,0-1.1,0-1.65-.01,0-.02,0-.03,0,0-.54,0-1.07,0-1.61,0-.32.12-.48.46-.48.63.01,1.27-.03,1.89,0,.69.04.88.28.89.97,0,.88,0,1.76,0,2.64,0,.36-.1.53-.49.52Z"/>
  </g>
</svg>